# xmcd CD database file
#
# Track frame offsets:
#	150
#	17625
#	40425
#	58500
#	77400
#	96375
#	109125
#	128325
#	144450
#	168375
#	186900
#	205650
#	224250
#	249975
#
# Disc length: 3638 seconds
#
# Revision: 1
# Processed by: cddbd v1.5.1PL2 Copyright (c) Steve Scherf et al.
# Submitted via: freeDBTagger 0.8.2.1
#
DISCID=ba0e340e
DTITLE=Joe Satriani - Strange Beautiful Music
DYEAR=1900
DGENRE=rock
TTITLE0=Oriental Melody
TTITLE1=Belly Dancer
TTITLE2=Starry Night
TTITLE3=Chords of Life
TTITLE4=Mind Storm
TTITLE5=Sleep Walk
TTITLE6=New Last Jam
TTITLE7=Mountain Song
TTITLE8=What Breaks a Heart
TTITLE9=Seven Strings
TTITLE10=Hill Groove
TTITLE11=The Journey
TTITLE12=The Traveler
TTITLE13=You Saved My Life
EXTD=
EXTT0=
EXTT1=
EXTT2=
EXTT3=
EXTT4=
EXTT5=
EXTT6=
EXTT7=
EXTT8=
EXTT9=
EXTT10=
EXTT11=
EXTT12=
EXTT13=
PLAYORDER=
